<svg id="icon-cloud-native" xmlns="http://www.w3.org/2000/svg" width="98.867" height="98.874" viewBox="0 0 98.867 98.874">
  <g id="Group_247" data-name="Group 247" transform="translate(60.44 91.15)">
    <g id="Group_246" data-name="Group 246">
      <path id="Path_3" data-name="Path 3" d="M349.492,472H314.927a1.931,1.931,0,1,0,0,3.862h34.565a1.931,1.931,0,1,0,0-3.862Z" transform="translate(-312.996 -472.003)" fill="#fff"/>
    </g>
  </g>
  <g id="Group_249" data-name="Group 249" transform="translate(0 91.15)">
    <g id="Group_248" data-name="Group 248" transform="translate(0)">
      <path id="Path_4" data-name="Path 4" d="M36.322,472H1.951a1.931,1.931,0,1,0,0,3.862H36.322a1.931,1.931,0,0,0,0-3.862Z" transform="translate(-0.02 -472.003)" fill="#fff"/>
    </g>
  </g>
  <g id="Group_251" data-name="Group 251" transform="translate(33.301 39.502)">
    <g id="Group_250" data-name="Group 250">
      <path id="Path_5" data-name="Path 5" d="M189.358,204.555H174.393a1.931,1.931,0,1,0,0,3.862h14.965a1.931,1.931,0,1,0,0-3.862Z" transform="translate(-172.462 -204.555)" fill="#fff"/>
    </g>
  </g>
  <g id="Group_253" data-name="Group 253" transform="translate(61.931 39.502)">
    <g id="Group_252" data-name="Group 252">
      <path id="Path_6" data-name="Path 6" d="M324.011,205.119a1.93,1.93,0,1,0,.566,1.365A1.945,1.945,0,0,0,324.011,205.119Z" transform="translate(-320.715 -204.553)" fill="#fff"/>
    </g>
  </g>
  <g id="Group_255" data-name="Group 255" transform="translate(55.184 39.502)">
    <g id="Group_254" data-name="Group 254">
      <path id="Path_7" data-name="Path 7" d="M289.075,205.119a1.934,1.934,0,1,0,.564,1.365A1.95,1.95,0,0,0,289.075,205.119Z" transform="translate(-285.777 -204.553)" fill="#fff"/>
    </g>
  </g>
  <g id="Group_257" data-name="Group 257" transform="translate(33.301 54.95)">
    <g id="Group_256" data-name="Group 256">
      <path id="Path_8" data-name="Path 8" d="M189.358,284.549H174.393a1.931,1.931,0,1,0,0,3.862h14.965a1.931,1.931,0,1,0,0-3.862Z" transform="translate(-172.462 -284.549)" fill="#fff"/>
    </g>
  </g>
  <g id="Group_259" data-name="Group 259" transform="translate(61.931 54.95)">
    <g id="Group_258" data-name="Group 258">
      <path id="Path_9" data-name="Path 9" d="M324.011,285.113a1.93,1.93,0,1,0,.566,1.365A1.946,1.946,0,0,0,324.011,285.113Z" transform="translate(-320.715 -284.547)" fill="#fff"/>
    </g>
  </g>
  <g id="Group_261" data-name="Group 261" transform="translate(55.184 54.95)">
    <g id="Group_260" data-name="Group 260">
      <path id="Path_10" data-name="Path 10" d="M289.075,285.113a1.934,1.934,0,1,0,.564,1.365A1.95,1.95,0,0,0,289.075,285.113Z" transform="translate(-285.777 -284.547)" fill="#fff"/>
    </g>
  </g>
  <g id="Group_263" data-name="Group 263" transform="translate(33.301 70.398)">
    <g id="Group_262" data-name="Group 262">
      <path id="Path_11" data-name="Path 11" d="M189.358,364.543H174.393a1.931,1.931,0,1,0,0,3.862h14.965a1.931,1.931,0,1,0,0-3.862Z" transform="translate(-172.462 -364.543)" fill="#fff"/>
    </g>
  </g>
  <g id="Group_265" data-name="Group 265" transform="translate(61.931 70.398)">
    <g id="Group_264" data-name="Group 264">
      <path id="Path_12" data-name="Path 12" d="M324.011,365.107a1.93,1.93,0,1,0,.566,1.365A1.949,1.949,0,0,0,324.011,365.107Z" transform="translate(-320.715 -364.541)" fill="#fff"/>
    </g>
  </g>
  <g id="Group_267" data-name="Group 267" transform="translate(55.184 70.398)">
    <g id="Group_266" data-name="Group 266">
      <path id="Path_13" data-name="Path 13" d="M289.073,365.107a1.93,1.93,0,1,0,.566,1.365A1.942,1.942,0,0,0,289.073,365.107Z" transform="translate(-285.777 -364.541)" fill="#fff"/>
    </g>
  </g>
  <g id="Group_269" data-name="Group 269" transform="translate(24.355 32.054)">
    <g id="Group_268" data-name="Group 268">
      <path id="Path_14" data-name="Path 14" d="M176.343,191.09a9.646,9.646,0,0,0-3.869-7.724,9.652,9.652,0,0,0-5.786-17.379h-30.9a9.652,9.652,0,0,0-5.786,17.379,9.645,9.645,0,0,0,0,15.448,9.652,9.652,0,0,0,5.786,17.379h13.492v5.36a5.793,5.793,0,1,0,3.862,0v-5.36h13.541a9.652,9.652,0,0,0,5.786-17.379A9.646,9.646,0,0,0,176.343,191.09ZM130,175.642a5.8,5.8,0,0,1,5.793-5.793h30.9a5.793,5.793,0,0,1,0,11.586h-30.9A5.8,5.8,0,0,1,130,175.642Zm21.217,53.3a1.931,1.931,0,1,1,1.931-1.931A1.933,1.933,0,0,1,151.215,228.945Zm21.265-22.407a5.8,5.8,0,0,1-5.793,5.793h-30.9a5.793,5.793,0,0,1,0-11.586h30.9A5.8,5.8,0,0,1,172.481,206.538Zm-5.793-9.655h-30.9a5.793,5.793,0,0,1,0-11.586h30.9a5.793,5.793,0,0,1,0,11.586Z" transform="translate(-126.137 -165.987)" fill="#fff"/>
    </g>
  </g>
  <g id="Group_271" data-name="Group 271" transform="translate(0)">
    <g id="Group_270" data-name="Group 270" transform="translate(0)">
      <path id="Path_15" data-name="Path 15" d="M94.74,29.9a23.538,23.538,0,0,0-9.831-8.177A33.414,33.414,0,0,0,20.8,27.05q-.45-.02-.9-.02a19.891,19.891,0,0,0-3.085,39.54,1.953,1.953,0,0,0,.3.023,1.931,1.931,0,0,0,.3-3.839,16.029,16.029,0,0,1,2.491-31.862,16.219,16.219,0,0,1,2.243.157A1.931,1.931,0,0,0,24.332,29.4,29.55,29.55,0,0,1,81.55,23.8a1.931,1.931,0,0,0,1.107,1.164A19.7,19.7,0,0,1,79.3,62.546a1.931,1.931,0,1,0,.774,3.783A23.564,23.564,0,0,0,94.74,29.9Z" transform="translate(-0.019)" fill="#fff"/>
    </g>
  </g>
</svg>
