<svg xmlns="http://www.w3.org/2000/svg" width="95.823" height="95.824" viewBox="0 0 95.823 95.824">
  <g id="icon-predictive-analytics" transform="translate(0)">
    <path id="Path_16" data-name="Path 16" d="M1.6,83.047H43.121V79.853H3.194V9.582H43.121v9.582a1.6,1.6,0,0,0,1.6,1.6H54.3V31.941h3.194V1.6A1.6,1.6,0,0,0,55.9,0H1.6A1.6,1.6,0,0,0,0,1.6V81.45A1.6,1.6,0,0,0,1.6,83.047ZM46.315,17.568V11.841l5.727,5.727ZM54.3,3.194V15.309L45.847,6.856a1.571,1.571,0,0,0-.469-.32c-.047-.019-.1-.037-.143-.052a1.594,1.594,0,0,0-.422-.083c-.032,0-.062-.012-.094-.012H3.194V3.194Zm0,0" transform="translate(0)" fill="#fff"/>
    <path id="Path_17" data-name="Path 17" d="M39.985,97.952,45.66,100.8a1.6,1.6,0,0,0,2.042-.543l5.059-7.6,5.059,7.589a1.6,1.6,0,0,0,2.458.243l5.259-5.254L70.8,100.49l2.258-2.258-6.388-6.388a1.6,1.6,0,0,0-2.258,0L59.4,96.855l-5.307-7.963a1.66,1.66,0,0,0-2.658,0L45.826,97.3,40.7,94.737a1.6,1.6,0,0,0-1.427,0l-4.078,2.039v-7H32v15.971a1.6,1.6,0,0,0,1.6,1.6H71.927v-3.194H35.194v-3.8Zm0,0" transform="translate(-25.612 -70.614)" fill="#fff"/>
    <path id="Path_18" data-name="Path 18" d="M123.16,225.6a9.582,9.582,0,1,0-8.173,9.484,9.553,9.553,0,0,0,8.173-9.484Zm-7.985-2.984v-3.194a6.384,6.384,0,0,1,2.661,1.428Zm-1.6,9.372a6.388,6.388,0,0,1-1.6-12.574V225.6a1.6,1.6,0,0,0,.843,1.408,1.675,1.675,0,0,0,.387.144c.049.011.1.011.15.017a1.358,1.358,0,0,0,.218.027h.035a1.586,1.586,0,0,0,.3-.044c.048-.006.1-.015.143-.026a1.637,1.637,0,0,0,.411-.193l5.144-3.43a6.317,6.317,0,0,1,.358,2.1A6.389,6.389,0,0,1,113.578,231.99Zm0,0" transform="translate(-83.233 -172.899)" fill="#fff"/>
    <path id="Path_19" data-name="Path 19" d="M32,232H43.179v3.194H32Zm0,0" transform="translate(-25.612 -185.685)" fill="#fff"/>
    <path id="Path_20" data-name="Path 20" d="M32,200H46.374v3.194H32Zm0,0" transform="translate(-25.612 -160.074)" fill="#fff"/>
    <path id="Path_21" data-name="Path 21" d="M32,264H43.179v3.194H32Zm0,0" transform="translate(-25.612 -211.297)" fill="#fff"/>
    <path id="Path_22" data-name="Path 22" d="M32,296H43.179v3.194H32Zm0,0" transform="translate(-25.612 -236.909)" fill="#fff"/>
    <path id="Path_23" data-name="Path 23" d="M32,328H60.747v3.194H32Zm0,0" transform="translate(-25.612 -262.521)" fill="#fff"/>
    <path id="Path_24" data-name="Path 24" d="M32,360H46.374v3.194H32Zm0,0" transform="translate(-25.612 -288.132)" fill="#fff"/>
    <path id="Path_25" data-name="Path 25" d="M120,360h11.179v3.194H120Zm0,0" transform="translate(-96.044 -288.132)" fill="#fff"/>
    <path id="Path_26" data-name="Path 26" d="M32,64h3.194v3.194H32Zm0,0" transform="translate(-25.612 -51.224)" fill="#fff"/>
    <path id="Path_27" data-name="Path 27" d="M64,64h3.194v3.194H64Zm0,0" transform="translate(-51.223 -51.224)" fill="#fff"/>
    <path id="Path_28" data-name="Path 28" d="M96,64h3.194v3.194H96Zm0,0" transform="translate(-76.835 -51.224)" fill="#fff"/>
    <path id="Path_29" data-name="Path 29" d="M223.255,160a26.431,26.431,0,0,0-25.187,18.89l-6,20.589a1.6,1.6,0,0,0,1.533,2.044h6.388V212.7a11.194,11.194,0,0,0,11.179,11.179H247.9a1.6,1.6,0,0,0,1.6-1.6V186.239A26.268,26.268,0,0,0,223.255,160Zm-20.076,52.7V199.926a1.6,1.6,0,0,0-1.6-1.6h-5.856l5.41-18.543a22.927,22.927,0,0,1,18.014-16.212v57.114h-7.985a8,8,0,0,1-7.985-7.985Zm43.121,7.985H222.343V212.7h4.13l4.323,4.323a1.6,1.6,0,0,0,1.129.468h3.194V214.3h-2.533l-4.323-4.323a1.6,1.6,0,0,0-1.129-.468h-4.791v-7.985h2.533l4.323,4.323a1.6,1.6,0,0,0,1.129.468h1.891a4.791,4.791,0,1,0,0-3.194h-1.23l-4.323-4.323a1.6,1.6,0,0,0-1.129-.468h-3.194v-4.791h3.194v-3.194h-3.194v-4.791h4.791a1.6,1.6,0,0,0,1.129-.468l3.833-3.833a4.749,4.749,0,0,0,3.023,1.107,4.855,4.855,0,1,0-4.7-3.941l-3.942,3.941h-4.13V163.218c.32-.016.618-.024.912-.024A23.071,23.071,0,0,1,246.3,186.238ZM235.12,204.718a1.6,1.6,0,1,1,1.6,1.6A1.6,1.6,0,0,1,235.12,204.718Zm-1.6-27.15a1.6,1.6,0,1,1,1.6,1.6A1.6,1.6,0,0,1,233.523,177.568Zm0,0" transform="translate(-153.67 -128.059)" fill="#fff"/>
    <path id="Path_30" data-name="Path 30" d="M256.245,272a6.182,6.182,0,1,0,6.182,6.182A6.182,6.182,0,0,0,256.245,272Zm0,9.169a2.988,2.988,0,1,1,2.988-2.987,2.989,2.989,0,0,1-2.988,2.987Zm0,0" transform="translate(-200.142 -217.7)" fill="#fff"/>
    <path id="Path_31" data-name="Path 31" d="M379.488,299.191H376v3.194h3.488a4.791,4.791,0,1,0,0-3.194Zm6.094,1.6a1.6,1.6,0,1,1-1.6-1.6A1.6,1.6,0,0,1,385.583,300.788Zm0,0" transform="translate(-300.938 -236.906)" fill="#fff"/>
    <path id="Path_32" data-name="Path 32" d="M360,208h3.194v3.194H360Zm0,0" transform="translate(-288.132 -166.476)" fill="#fff"/>
    <path id="Path_33" data-name="Path 33" d="M424,432h3.194v3.194H424Zm0,0" transform="translate(-339.356 -345.759)" fill="#fff"/>
  </g>
</svg>
