<svg id="speedy-implementation" xmlns="http://www.w3.org/2000/svg" width="99.624" height="97.548" viewBox="0 0 99.624 97.548">
  <path id="Path_2684" data-name="Path 2684" d="M169.693,166.276a8.326,8.326,0,0,1-8.3-8.3v-17.33l-11.545-11.52a10.145,10.145,0,0,1-2.984-7.212,10.362,10.362,0,0,1,2.984-7.238L164.66,99.861h-7.55l-6.175,6.175a7.2,7.2,0,0,1-5.137,2.127,7.285,7.285,0,0,1-7.264-7.265,7.2,7.2,0,0,1,2.127-5.137l8.3-8.3a7.2,7.2,0,0,1,5.137-2.127h23.375a8.288,8.288,0,0,1,5.863,2.439l6.719,6.719a8.333,8.333,0,0,1,2.439,5.864V114.39h9.34a7.264,7.264,0,0,1,0,14.528H186.271a8.326,8.326,0,0,1-8.3-8.3v-5.371l-9.236,9.262,6.823,6.823a8.287,8.287,0,0,1,2.438,5.863v20.755a8.331,8.331,0,0,1-8.3,8.327ZM155.424,95.71H174.7l-21.922,21.922a6.085,6.085,0,0,0-1.764,4.307,6.179,6.179,0,0,0,1.764,4.281l12.738,12.739v19.017a4.151,4.151,0,0,0,8.3,0V137.22a4.12,4.12,0,0,0-1.219-2.932l-9.729-9.781,19.276-19.276v15.385a4.163,4.163,0,0,0,4.151,4.151h15.566a3.113,3.113,0,0,0,0-6.226h-13.49V100.354a4.168,4.168,0,0,0-1.22-2.932L180.434,90.7a4.167,4.167,0,0,0-2.932-1.219H154.127a3.189,3.189,0,0,0-2.206.908l-8.3,8.3a3.079,3.079,0,0,0-.908,2.2,3.122,3.122,0,0,0,3.113,3.113,3.189,3.189,0,0,0,2.2-.908Zm0,0" transform="translate(-111.579 -68.728)" fill="#fff"/>
  <path id="Path_2685" data-name="Path 2685" d="M52.755,295.725a8.177,8.177,0,0,1-5.863-2.439L34.439,280.833A8.291,8.291,0,0,1,40.3,266.668a8.18,8.18,0,0,1,5.863,2.438l6.59,6.59,3.892-3.892,2.932,2.932-6.823,6.823-9.521-9.521a4.122,4.122,0,0,0-2.932-1.219,4.164,4.164,0,0,0-4.151,4.151,4.121,4.121,0,0,0,1.22,2.932l12.453,12.453a4.213,4.213,0,0,0,5.863,0l9.34-9.34,2.932,2.932-9.34,9.34a8.178,8.178,0,0,1-5.863,2.439Zm0,0" transform="translate(-25.774 -214.78)" fill="#fff"/>
  <path id="Path_2686" data-name="Path 2686" d="M396.453,24.906a12.453,12.453,0,1,1,12.453-12.453A12.457,12.457,0,0,1,396.453,24.906Zm0-20.755a8.3,8.3,0,1,0,8.3,8.3A8.327,8.327,0,0,0,396.453,4.151Zm0,0" transform="translate(-309.282)" fill="#fff"/>
  <path id="Path_2687" data-name="Path 2687" d="M0,160H18.679v4.151H0Zm0,0" transform="translate(0 -128.868)" fill="#fff"/>
  <path id="Path_2688" data-name="Path 2688" d="M32,85.332H52.755v4.151H32Zm0,0" transform="translate(-25.774 -68.728)" fill="#fff"/>
</svg>
