<svg id="icon-student-demographics" xmlns="http://www.w3.org/2000/svg" width="82.8" height="69.552" viewBox="0 0 82.8 69.552">
  <path id="Path_447" data-name="Path 447" d="M74.52,45.248H52.661a7.144,7.144,0,0,0,.331-2.318V36.968A4.983,4.983,0,0,0,48.024,32H34.776a4.983,4.983,0,0,0-4.968,4.968V42.93a11.182,11.182,0,0,0,.331,2.318H8.28A8.3,8.3,0,0,0,0,53.528V93.272a8.3,8.3,0,0,0,8.28,8.28H74.52a8.3,8.3,0,0,0,8.28-8.28V53.528A8.3,8.3,0,0,0,74.52,45.248Zm-41.4-8.28a1.661,1.661,0,0,1,1.656-1.656H48.024a1.661,1.661,0,0,1,1.656,1.656V42.93A4.919,4.919,0,0,1,48.6,45.993v.083l-5.879,7.369a1.4,1.4,0,0,1-1.242.58,1.66,1.66,0,0,1-1.242-.58l-5.962-7.369A5.094,5.094,0,0,1,33.12,42.93Zm46.368,56.3A4.983,4.983,0,0,1,74.52,98.24H8.28a4.983,4.983,0,0,1-4.968-4.968V53.528A4.983,4.983,0,0,1,8.28,48.56H31.464a1.05,1.05,0,0,0,.5-.083l5.548,7.038a4.928,4.928,0,0,0,7.783,0l5.548-6.955H74.52a4.983,4.983,0,0,1,4.968,4.968Z" transform="translate(0 -32)" fill="#13458f"/>
  <path id="Path_448" data-name="Path 448" d="M68.158,168.343c-1.408-4.554-4.306-6.293-7.783-7.369a12.33,12.33,0,0,0,2.318-7.038,9.936,9.936,0,1,0-19.872,0,12.892,12.892,0,0,0,2.4,7.121c-3.229,1.076-6.044,2.815-7.452,7.369l-1.408,5.051a3.1,3.1,0,0,0,.414,2.567A2.9,2.9,0,0,0,39.1,177.2H66.833a2.9,2.9,0,0,0,2.318-1.159,2.828,2.828,0,0,0,.414-2.567Zm-15.4-21.031a6.643,6.643,0,0,1,6.624,6.624c0,3.726-3.064,8.28-6.624,8.28a5.086,5.086,0,0,1-3.312-1.325l-.331-.331a9.816,9.816,0,0,1-2.981-6.624A6.643,6.643,0,0,1,52.757,147.312Zm-13.082,26.5,1.242-4.471c.994-3.395,3.064-4.637,6.872-5.548a8.417,8.417,0,0,0,4.968,1.739,8.038,8.038,0,0,0,5.051-1.822c4.14,1.076,6.127,2.153,7.2,5.548l1.242,4.554Z" transform="translate(-28.745 -120.816)" fill="#5dd1fd"/>
  <path id="Path_449" data-name="Path 449" d="M181.656,67.312h4.968a1.656,1.656,0,1,0,0-3.312h-4.968a1.656,1.656,0,1,0,0,3.312Z" transform="translate(-142.74 -57.376)" fill="#ff8a93"/>
  <path id="Path_450" data-name="Path 450" d="M236.152,192h-26.5a1.656,1.656,0,1,0,0,3.312h26.5a1.656,1.656,0,0,0,0-3.312Z" transform="translate(-164.944 -158.88)" fill="#2a3854"/>
  <path id="Path_451" data-name="Path 451" d="M220.42,224H209.656a1.656,1.656,0,1,0,0,3.312H220.42a1.656,1.656,0,0,0,0-3.312Z" transform="translate(-164.944 -184.256)" fill="#2a3854"/>
  <path id="Path_452" data-name="Path 452" d="M300.14,224h-2.484a1.656,1.656,0,1,0,0,3.312h2.484a1.656,1.656,0,1,0,0-3.312Z" transform="translate(-234.728 -184.256)" fill="#ff8a93"/>
</svg>
