<svg xmlns="http://www.w3.org/2000/svg" width="64.8" height="90.552" viewBox="0 0 64.8 90.552">
  <g id="icon-staff-database" transform="translate(-10.524 5.317)">
    <path id="Path_1812" data-name="Path 1812" d="M56.52,45.248H43.661a7.144,7.144,0,0,0,.331-2.318V36.968A4.983,4.983,0,0,0,39.024,32H25.776a4.983,4.983,0,0,0-4.968,4.968V42.93a11.182,11.182,0,0,0,.331,2.318H8.28A8.3,8.3,0,0,0,0,53.528v60.744a8.3,8.3,0,0,0,8.28,8.28H56.52a8.3,8.3,0,0,0,8.28-8.28V53.528A8.3,8.3,0,0,0,56.52,45.248Zm-32.4-8.28a1.661,1.661,0,0,1,1.656-1.656H39.024a1.661,1.661,0,0,1,1.656,1.656V42.93A4.919,4.919,0,0,1,39.6,45.993v.083l-5.879,7.369a1.4,1.4,0,0,1-1.242.58,1.66,1.66,0,0,1-1.242-.58l-5.962-7.369A5.094,5.094,0,0,1,24.12,42.93Zm37.368,77.3a4.983,4.983,0,0,1-4.968,4.968H8.28a4.983,4.983,0,0,1-4.968-4.968V53.528A4.983,4.983,0,0,1,8.28,48.56H22.464a1.05,1.05,0,0,0,.5-.083l5.548,7.038a4.928,4.928,0,0,0,7.783,0l5.548-6.955H56.52a4.983,4.983,0,0,1,4.968,4.968Z" transform="translate(10.524 -37.317)" fill="#13458f"/>
    <path id="Path_1813" data-name="Path 1813" d="M20.624,25.249A9.624,9.624,0,1,0,11,15.624,9.624,9.624,0,0,0,20.624,25.249Zm0-15.4a5.775,5.775,0,1,1-5.775,5.775A5.775,5.775,0,0,1,20.624,9.85Z" transform="translate(22.215 19.212)" fill="#5dd1fd"/>
    <path id="Path_1814" data-name="Path 1814" d="M12.878,19.381a17.362,17.362,0,0,1,20.981,0,1.925,1.925,0,1,0,2.117-3.2,21.1,21.1,0,0,0-25.216,0,1.925,1.925,0,0,0,2.117,3.2Z" transform="translate(19.49 36.321)" fill="#ff8a93"/>
    <path id="Path_1815" data-name="Path 1815" d="M35.023,16h-23.1a1.925,1.925,0,0,0,0,3.85h23.1a1.925,1.925,0,0,0,0-3.85Z" transform="translate(19.366 47.709)" fill="#2a3854"/>
    <path id="Path_1816" data-name="Path 1816" d="M35.023,18h-23.1a1.925,1.925,0,1,0,0,3.85h23.1a1.925,1.925,0,1,0,0-3.85Z" transform="translate(19.366 53.408)" fill="#2a3854"/>
  </g>
</svg>
