<svg xmlns="http://www.w3.org/2000/svg" width="90" height="52" viewBox="0 0 90 52">
  <g id="icon-messaging" transform="translate(-610 -3362)">
    <path id="email_3_" data-name="email (3)" d="M11,45a2.006,2.006,0,0,1,2-2H25a2,2,0,0,1,0,4H13A2.006,2.006,0,0,1,11,45ZM25,57H7a2,2,0,0,1,0-4H25a2,2,0,0,1,0,4Z" transform="translate(605 3338)" fill="#ff8a93"/>
    <path id="email_3_2" data-name="email (3)" d="M87,24H25a8.024,8.024,0,0,0-8,8v3a2,2,0,0,0,4,0V32a5.019,5.019,0,0,1,.2-1.2L43.6,50,21.2,69.2A5.019,5.019,0,0,1,21,68V65a2,2,0,0,0-4,0v3a8.024,8.024,0,0,0,8,8H87a8.024,8.024,0,0,0,8-8V32A8.024,8.024,0,0,0,87,24ZM24.2,28.1A1.949,1.949,0,0,1,25,28H87a1.949,1.949,0,0,1,.8.1L57.3,54.2a2.1,2.1,0,0,1-2.6,0ZM87,72H25a1.949,1.949,0,0,1-.8-.1L46.7,52.6l5.4,4.7a5.82,5.82,0,0,0,7.8,0l5.4-4.7L87.8,71.9A1.949,1.949,0,0,1,87,72Zm4-4a5.019,5.019,0,0,1-.2,1.2L68.4,50,90.8,30.8A5.019,5.019,0,0,1,91,32Z" transform="translate(605 3338)" fill="#13458f"/>
  </g>
</svg>
