<svg xmlns="http://www.w3.org/2000/svg" width="64.986" height="77.378" viewBox="0 0 64.986 77.378">
  <g id="icon-standards-grading" transform="translate(-0.524 -7.546)">
    <g id="Group_294" data-name="Group 294" transform="translate(1 0.5)">
      <path id="Path_496" data-name="Path 496" d="M40.047,47.795H49.29a1.647,1.647,0,0,0,0-3.295H40.047A1.64,1.64,0,0,0,38.4,46.147a1.536,1.536,0,0,0,1.647,1.647Z" transform="translate(-34.655 114.414) rotate(-90)" fill="#2a3854"/>
      <path id="Path_1410" data-name="Path 1410" d="M40.047,47.795H49.29a1.647,1.647,0,0,0,0-3.295H40.047A1.64,1.64,0,0,0,38.4,46.147a1.536,1.536,0,0,0,1.647,1.647Z" transform="translate(-1.567 114.414) rotate(-90)" fill="#2a3854"/>
      <path id="Path_1407" data-name="Path 1407" d="M40.047,47.795H57.29a1.647,1.647,0,0,0,0-3.295H40.047A1.64,1.64,0,0,0,38.4,46.147a1.536,1.536,0,0,0,1.647,1.647Z" transform="translate(-26.383 114.414) rotate(-90)" fill="#2a3854"/>
      <path id="Path_1411" data-name="Path 1411" d="M40.047,47.795H57.29a1.647,1.647,0,0,0,0-3.295H40.047A1.64,1.64,0,0,0,38.4,46.147a1.536,1.536,0,0,0,1.647,1.647Z" transform="translate(6.705 114.414) rotate(-90)" fill="#2a3854"/>
      <path id="Path_1408" data-name="Path 1408" d="M40.047,47.795H53.29a1.647,1.647,0,0,0,0-3.295H40.047A1.64,1.64,0,0,0,38.4,46.147a1.536,1.536,0,0,0,1.647,1.647Z" transform="translate(-18.111 114.414) rotate(-90)" fill="#2a3854"/>
      <path id="Path_1409" data-name="Path 1409" d="M40.047,47.795H44.29a1.647,1.647,0,0,0,0-3.295H40.047A1.64,1.64,0,0,0,38.4,46.147a1.536,1.536,0,0,0,1.647,1.647Z" transform="translate(-9.839 114.414) rotate(-90)" fill="#2a3854"/>
      <path id="Path_495" data-name="Path 495" d="M69.593,2h-52.8A5.83,5.83,0,0,0,10.7,7.527V73.851a5.83,5.83,0,0,0,6.092,5.527h52.8a5.83,5.83,0,0,0,6.092-5.527V7.527A5.83,5.83,0,0,0,69.593,2Zm2.031,71.851a1.943,1.943,0,0,1-2.031,1.842h-52.8a1.943,1.943,0,0,1-2.031-1.842V7.527a1.943,1.943,0,0,1,2.031-1.842h52.8a1.943,1.943,0,0,1,2.031,1.842Z" transform="translate(-11.176 5.046)" fill="#13458f"/>
      <g id="star" transform="translate(15.119 6.36)">
        <g id="Group_358" data-name="Group 358" transform="translate(4.213 13.778)">
          <g id="Group_357" data-name="Group 357">
            <path id="Path_1401" data-name="Path 1401" d="M86.949,45.936l-5.58-.811-2.5-5.056a2.629,2.629,0,0,0-4.714,0l-2.5,5.056-5.58.811a2.629,2.629,0,0,0-1.457,4.484l4.038,3.936-.953,5.557a2.629,2.629,0,0,0,3.814,2.771l4.991-2.624,4.991,2.624a2.63,2.63,0,0,0,3.814-2.771l-.953-5.557,4.038-3.936A2.629,2.629,0,0,0,86.949,45.936Zm-.116,2.87-4.462,4.349a1.127,1.127,0,0,0-.324,1L83.1,60.293a.375.375,0,0,1-.545.4l-5.515-2.9a1.127,1.127,0,0,0-1.048,0l-5.515,2.9a.375.375,0,0,1-.545-.4l1.053-6.141a1.127,1.127,0,0,0-.324-1L66.2,48.806a.375.375,0,0,1,.208-.641l6.166-.9a1.127,1.127,0,0,0,.848-.616l2.758-5.587a.375.375,0,0,1,.673,0l2.758,5.587a1.126,1.126,0,0,0,.848.616l6.166.9A.375.375,0,0,1,86.834,48.806Z" transform="translate(-63.831 -38.604)" fill="#ff8a93"/>
          </g>
        </g>
        <g id="Group_360" data-name="Group 360" transform="translate(5.508 12.023)">
          <g id="Group_359" data-name="Group 359">
            <path id="Path_1402" data-name="Path 1402" d="M86.831,14.342l-1.347-1.854a1.127,1.127,0,0,0-1.823,1.324l1.347,1.854a1.127,1.127,0,0,0,1.823-1.324Z" transform="translate(-83.446 -12.023)" fill="#5dd1fd"/>
          </g>
        </g>
        <g id="Group_362" data-name="Group 362" transform="translate(-0.001 30.182)">
          <g id="Group_361" data-name="Group 361">
            <path id="Path_1403" data-name="Path 1403" d="M4.422,287.888A1.126,1.126,0,0,0,3,287.164l-2.224.723a1.127,1.127,0,0,0,.7,2.143l2.224-.723A1.126,1.126,0,0,0,4.422,287.888Z" transform="translate(0.001 -287.109)" fill="#5dd1fd"/>
          </g>
        </g>
        <g id="Group_364" data-name="Group 364" transform="translate(24.688 12.024)">
          <g id="Group_363" data-name="Group 363">
            <path id="Path_1404" data-name="Path 1404" d="M377.145,12.24a1.127,1.127,0,0,0-1.574.249l-1.347,1.854a1.127,1.127,0,0,0,1.823,1.324l1.347-1.854A1.127,1.127,0,0,0,377.145,12.24Z" transform="translate(-374.009 -12.025)" fill="#5dd1fd"/>
          </g>
        </g>
        <g id="Group_366" data-name="Group 366" transform="translate(29.319 30.182)">
          <g id="Group_365" data-name="Group 365">
            <path id="Path_1405" data-name="Path 1405" d="M447.861,287.886l-2.224-.723a1.127,1.127,0,1,0-.7,2.143l2.224.723a1.127,1.127,0,1,0,.7-2.143Z" transform="translate(-444.162 -287.108)" fill="#5dd1fd"/>
          </g>
        </g>
        <g id="Group_368" data-name="Group 368" transform="translate(15.772 39.694)">
          <g id="Group_367" data-name="Group 367">
            <path id="Path_1406" data-name="Path 1406" d="M240.061,431.205a1.127,1.127,0,0,0-1.127,1.127v2.287a1.127,1.127,0,0,0,2.253,0v-2.287A1.126,1.126,0,0,0,240.061,431.205Z" transform="translate(-238.934 -431.205)" fill="#5dd1fd"/>
          </g>
        </g>
      </g>
    </g>
  </g>
</svg>
