<svg xmlns="http://www.w3.org/2000/svg" width="76.061" height="79.367" viewBox="0 0 76.061 79.367">
  <g id="icon-teacher-lesson-plans" transform="translate(-10.667)">
    <g id="Group_331" data-name="Group 331" transform="translate(10.667)">
      <g id="Group_330" data-name="Group 330">
        <path id="Path_1380" data-name="Path 1380" d="M65.232,0h-46.3a8.277,8.277,0,0,0-8.267,8.267V71.1a8.277,8.277,0,0,0,8.267,8.268h46.3A8.277,8.277,0,0,0,73.5,71.1V8.267A8.277,8.277,0,0,0,65.232,0Zm4.96,71.1a4.96,4.96,0,0,1-4.96,4.96h-46.3a4.96,4.96,0,0,1-4.96-4.96V8.267a4.96,4.96,0,0,1,4.96-4.96h46.3a4.96,4.96,0,0,1,4.96,4.96Z" transform="translate(-10.667)" fill="#13458f"/>
      </g>
    </g>
    <g id="Group_335" data-name="Group 335" transform="translate(12.32 66.14)">
      <g id="Group_334" data-name="Group 334">
        <rect id="Rectangle_186" data-name="Rectangle 186" width="59.526" height="3.307" fill="#13458f"/>
      </g>
    </g>
    <g id="Group_337" data-name="Group 337" transform="translate(17.281 11.574)">
      <g id="Group_336" data-name="Group 336">
        <path id="Path_1381" data-name="Path 1381" d="M99.631,74.667v37.346L89.025,122.618H56.64V74.667H53.333v47.951a3.307,3.307,0,0,0,3.307,3.307H89.71a1.654,1.654,0,0,0,1.169-.484l11.574-11.574a1.653,1.653,0,0,0,.484-1.169V74.667Z" transform="translate(-53.333 -74.667)" fill="#2a3854"/>
      </g>
    </g>
    <g id="Group_333" data-name="Group 333" transform="translate(12.32 9.921)">
      <g id="Group_332" data-name="Group 332">
        <rect id="Rectangle_185" data-name="Rectangle 185" width="59.526" height="3.307" fill="#13458f"/>
      </g>
    </g>
    <g id="Group_339" data-name="Group 339" transform="translate(52.004 47.951)">
      <g id="Group_338" data-name="Group 338">
        <path id="Path_1382" data-name="Path 1382" d="M280.641,309.333a3.307,3.307,0,0,0-3.307,3.307v9.921h3.307V312.64h9.921v-3.307Z" transform="translate(-277.334 -309.333)" fill="#2a3854"/>
      </g>
    </g>
    <g id="Group_341" data-name="Group 341" transform="translate(78.46 62.833)">
      <g id="Group_340" data-name="Group 340">
        <rect id="Rectangle_187" data-name="Rectangle 187" width="6.614" height="3.307" fill="#2a3854"/>
      </g>
    </g>
    <g id="Group_343" data-name="Group 343" transform="translate(76.807 3.354)">
      <g id="Group_342" data-name="Group 342">
        <path id="Path_1383" data-name="Path 1383" d="M446.977,27.284l-3.307-4.96a1.718,1.718,0,0,0-2.751,0l-3.307,4.96a1.664,1.664,0,0,0-.278.918V91.034a1.654,1.654,0,0,0,1.654,1.654H445.6a1.654,1.654,0,0,0,1.654-1.654V28.2A1.666,1.666,0,0,0,446.977,27.284Zm-3.029,62.1h-3.307V28.7l1.654-2.48,1.653,2.48Z" transform="translate(-437.334 -21.634)" fill="#ff8a93"/>
      </g>
    </g>
    <g id="Group_345" data-name="Group 345" transform="translate(25.548 19.842)">
      <g id="Group_344" data-name="Group 344">
        <path id="Path_1384" data-name="Path 1384" d="M138.082,128H108.32a1.654,1.654,0,0,0-1.654,1.654v9.921a1.654,1.654,0,0,0,1.654,1.654h29.763a1.654,1.654,0,0,0,1.654-1.654v-9.921A1.654,1.654,0,0,0,138.082,128Zm-1.653,9.921H109.973v-6.614h26.456Z" transform="translate(-106.666 -128)" fill="#ff8a93"/>
      </g>
    </g>
    <g id="Group_347" data-name="Group 347" transform="translate(25.548 36.377)">
      <g id="Group_346" data-name="Group 346">
        <rect id="Rectangle_188" data-name="Rectangle 188" width="3.307" height="3.307" fill="#2a3854"/>
      </g>
    </g>
    <g id="Group_349" data-name="Group 349" transform="translate(32.162 36.377)">
      <g id="Group_348" data-name="Group 348">
        <rect id="Rectangle_189" data-name="Rectangle 189" width="3.307" height="3.307" fill="#2a3854"/>
      </g>
    </g>
    <g id="Group_351" data-name="Group 351" transform="translate(38.776 36.377)">
      <g id="Group_350" data-name="Group 350">
        <rect id="Rectangle_190" data-name="Rectangle 190" width="19.842" height="3.307" fill="#5dd1fd"/>
      </g>
    </g>
    <g id="Group_353" data-name="Group 353" transform="translate(25.548 42.991)">
      <g id="Group_352" data-name="Group 352">
        <rect id="Rectangle_191" data-name="Rectangle 191" width="21.495" height="3.307" fill="#5dd1fd"/>
      </g>
    </g>
    <g id="Group_355" data-name="Group 355" transform="translate(25.548 49.605)">
      <g id="Group_354" data-name="Group 354">
        <rect id="Rectangle_192" data-name="Rectangle 192" width="14.881" height="3.307" fill="#5dd1fd"/>
      </g>
    </g>
  </g>
</svg>
