<svg xmlns="http://www.w3.org/2000/svg" width="79.378" height="81.736" viewBox="0 0 79.378 81.736">
  <g id="icon-graduation-requirements" transform="translate(-0.496 0)">
    <path id="Path_1374" data-name="Path 1374" d="M23.669,53.049a5.573,5.573,0,0,0,6.56,9.011l.039-.029L43.286,51.985a5.55,5.55,0,0,0,1.45-1.568L52.919,38.29,55.778,40.3a.638.638,0,0,1-.062.823l-8.288,8.288A5.573,5.573,0,0,0,55.308,57.3l8.7-8.7A11.787,11.787,0,0,0,64.6,32.574l9.01-9.01a9.042,9.042,0,0,0,1.17-1.441c.054,0,.109,0,.163,0a20.865,20.865,0,0,0,7.473-1.378,20.967,20.967,0,0,0,8.571-6.15l4.6-5.526a5,5,0,1,0-7.693-6.4L84.463,6.785A7.017,7.017,0,0,0,72.484,2.053l-1.14,1.14a6.979,6.979,0,0,0-2.057,4.965c0,.105,0,.21.008.314a9.014,9.014,0,0,0-1.878-.231,1.566,1.566,0,0,0-.163-.008H59.63A37.854,37.854,0,0,0,43.639,11.8a50.53,50.53,0,0,1-21.35,4.764c-.041,0-.083,0-.124,0a1.6,1.6,0,0,0-1.582,1.813l.549,4.018A27.254,27.254,0,0,0,36.1,43.212l-.278.428Zm18.4-4.39c-.014.021-.028.042-.041.063a2.376,2.376,0,0,1-.637.692l-.039.029L28.338,59.487a2.359,2.359,0,0,1-1.375.44,2.38,2.38,0,0,1-1.4-4.308l.041-.031L37.993,46a1.583,1.583,0,0,0,.362-.395l8.271-12.774A7.694,7.694,0,0,0,49,35.531l1.305.92Zm19.68-2.322-8.7,8.7a2.38,2.38,0,0,1-3.366-3.366l8.288-8.288a3.829,3.829,0,0,0,0-5.411,1.618,1.618,0,0,0-.21-.176l-6.922-4.877a4.516,4.516,0,0,1-.592-6.887l1.664-1.664,9.314,9.314a1.5,1.5,0,0,0,.115.1l.408.409a8.6,8.6,0,0,1,0,12.142Zm.611-16.047-7.054-7.054c-.037-.037-.075-.071-.115-.1L54.17,22.111l8.99-8.99a5.791,5.791,0,0,1,5.6-1.493,5.063,5.063,0,0,0-.869.36,5,5,0,0,0,.86,9.207,20.912,20.912,0,0,0,2.165.541ZM85.744,10.237l4.6-5.526a1.812,1.812,0,0,1,2.785,2.319l-4.6,5.526a17.762,17.762,0,0,1-7.262,5.213,17.778,17.778,0,0,1-11.572.377,1.812,1.812,0,1,1,1.069-3.462,14.2,14.2,0,0,0,2.609.544,1.581,1.581,0,0,0,.43.041,14.039,14.039,0,0,0,3.677-.186q.228-.038.451-.09l.026-.006.094-.022a14.063,14.063,0,0,0,7.693-4.726ZM72.481,8.157A3.8,3.8,0,0,1,73.6,5.45l1.14-1.14a3.829,3.829,0,1,1,5.415,5.415l-1.14,1.141a3.806,3.806,0,0,1-1.9,1.03l-.142.029A3.826,3.826,0,0,1,73.64,10.9c-.012-.012-.023-.025-.036-.037s-.034-.032-.051-.048a3.8,3.8,0,0,1-1.073-2.657ZM24.3,21.964l-.306-2.234A53.771,53.771,0,0,0,45,14.691,34.644,34.644,0,0,1,59.63,11.425h.711l-9.557,9.557-.007.007-2.786,2.786a7.7,7.7,0,0,0-2.2,4.461L37.848,40.512A24.077,24.077,0,0,1,24.3,21.964Zm0,0" transform="translate(-16.868 0)" fill="#13458f"/>
    <path id="Path_1375" data-name="Path 1375" d="M39.944,389.044,27.7,401.286a1.6,1.6,0,1,0,2.257,2.258L42.2,391.3a1.6,1.6,0,0,0-2.257-2.258Zm0,0" transform="translate(-22.47 -326.545)" fill="#2a3854"/>
    <path id="Path_1376" data-name="Path 1376" d="M2.093,492a1.6,1.6,0,1,0,1.129.468A1.605,1.605,0,0,0,2.093,492Zm0,0" transform="translate(0 -413.454)" fill="#2a3854"/>
    <path id="Path_1377" data-name="Path 1377" d="M135.354,389.044a1.6,1.6,0,0,0-2.257,0l-7.929,7.929a1.6,1.6,0,1,0,2.257,2.258l7.929-7.929A1.6,1.6,0,0,0,135.354,389.044Zm0,0" transform="translate(-104.376 -326.545)" fill="#ff8a93"/>
    <path id="Path_1378" data-name="Path 1378" d="M212.764,216.891,198.379,220.2a1.6,1.6,0,0,0-.771,2.685l1.083,1.083L161.425,261.23a1.6,1.6,0,1,0,2.257,2.258l38.4-38.4a1.6,1.6,0,0,0,0-2.258l-.173-.173,9.09-2.09-2.089,9.09-.173-.173a1.6,1.6,0,0,0-2.258,0L178.87,257.1a1.6,1.6,0,0,0,2.257,2.257L207.6,232.877l1.083,1.083a1.6,1.6,0,0,0,2.685-.771l3.306-14.385a1.6,1.6,0,0,0-1.914-1.913Zm0,0" transform="translate(-134.845 -182.232)" fill="#5dd1fd"/>
    <path id="Path_1379" data-name="Path 1379" d="M245.936,491.926a1.594,1.594,0,1,0,1.129.466A1.612,1.612,0,0,0,245.936,491.926Zm0,0" transform="translate(-204.916 -413.395)" fill="#2a3854"/>
  </g>
</svg>
