<svg id="icon-behavior" xmlns="http://www.w3.org/2000/svg" width="79.028" height="79.028" viewBox="0 0 79.028 79.028">
  <path id="Path_1433" data-name="Path 1433" d="M67.455,11.573A39.514,39.514,0,0,0,11.573,67.455,39.514,39.514,0,0,0,67.455,11.573ZM39.514,74.4A34.884,34.884,0,1,1,74.4,39.514,34.923,34.923,0,0,1,39.514,74.4Z" transform="translate(0)" fill="#13458f"/>
  <path id="Path_1434" data-name="Path 1434" d="M323.946,136A6.954,6.954,0,0,0,317,142.946v4.631h4.631v-4.631a2.315,2.315,0,1,1,4.631,0v4.631h4.631v-4.631A6.954,6.954,0,0,0,323.946,136Z" transform="translate(-268.07 -115.008)" fill="#ff8a93"/>
  <path id="Path_1435" data-name="Path 1435" d="M109.631,142.946a2.315,2.315,0,1,1,4.631,0v4.631h4.631v-4.631a6.946,6.946,0,1,0-13.892,0v4.631h4.631Z" transform="translate(-88.793 -115.008)" fill="#ff8a93"/>
  <path id="Path_1436" data-name="Path 1436" d="M105,243.315a23.307,23.307,0,0,0,46.614,0V241H105Zm12.358,15.121a18.682,18.682,0,0,1,21.9,0,18.636,18.636,0,0,1-21.9,0Zm29.483-12.806a18.6,18.6,0,0,1-4.157,9.593,23.308,23.308,0,0,0-28.754,0,18.6,18.6,0,0,1-4.157-9.593Z" transform="translate(-88.793 -203.801)" fill="#5dd1fd"/>
</svg>
