<svg xmlns="http://www.w3.org/2000/svg" width="65.301" height="79.028" viewBox="0 0 65.301 79.028">
  <g id="icon-student-billing-and-fees" transform="translate(-7.437 -3.962)">
    <path id="Path_1437" data-name="Path 1437" d="M67.961,18.643H53.947A5.329,5.329,0,0,0,48.933,13.1H44.985V7.985A1.974,1.974,0,0,0,44.1,6.366L40.821,4.294a1.974,1.974,0,0,0-2.191,0L36.656,5.577,34.682,4.294a1.974,1.974,0,0,0-2.191,0L30.517,5.577,28.543,4.294a1.974,1.974,0,0,0-2.191,0L24.379,5.577,22.4,4.294a1.974,1.974,0,0,0-2.191,0S17.49,6.386,17.431,6.406a1.974,1.974,0,0,0-.888,1.619V13.1H12.5a5.329,5.329,0,0,0-5.033,5.586V56.995a5.231,5.231,0,0,0,0,1.046l2.842,20.607a5.171,5.171,0,0,0,4.9,4.342H46.17a5.211,5.211,0,0,0,4.915-4.54L53.177,62.4H67.961a4.777,4.777,0,0,0,4.777-4.777V23.42A4.8,4.8,0,0,0,67.961,18.643ZM21.655,8.3l1.974,1.283a1.974,1.974,0,0,0,2.191,0L27.793,8.3l1.974,1.283a1.974,1.974,0,0,0,2.211,0L33.952,8.3l1.974,1.283a1.974,1.974,0,0,0,2.191,0L40.09,8.3l1.165.79V21.545H20.49V9.09ZM50,56.995a3.553,3.553,0,0,1,0,.533l-2.8,20.39c-.138.691-.572,1.2-1.026,1.2H15.2c-.454,0-.888-.513-1.007-1.105L11.509,57.33a2.941,2.941,0,0,1,0-.415V18.683c0-.967.572-1.638,1.086-1.638h3.948v4.5H15.082a1.974,1.974,0,1,0,0,3.948H46.288a1.974,1.974,0,0,0,0-3.948H44.827v-4.5h3.948c.493,0,1.066.711,1.066,1.638Zm18.89.711a.829.829,0,0,1-.829.829H53.947V22.591H67.961a.829.829,0,0,1,.829.829Z" transform="translate(0 0)" fill="#13458f"/>
    <g id="payment-method">
      <path id="Path_1437-2" data-name="Path 1437" d="M41.156,28.986H19.661A3.533,3.533,0,0,0,16.128,32.5V44.047a3.533,3.533,0,0,0,3.533,3.513H41.156a3.513,3.513,0,0,0,3.513-3.513V32.5A3.513,3.513,0,0,0,41.156,28.986Zm-.434,14.626H20.076V32.934H40.722Z" transform="translate(0 0)" fill="#ff8a93"/>
      <path id="Path_1438" data-name="Path 1438" d="M60.7,48.863v4.7a1.974,1.974,0,0,1-3.948,0v-4.7a1.974,1.974,0,0,1,3.948,0Z" fill="#2a3854"/>
      <path id="Path_1439" data-name="Path 1439" d="M66.382,44.915V53.56a1.974,1.974,0,1,1-3.948,0V44.915a1.974,1.974,0,1,1,3.948,0Z" fill="#2a3854"/>
      <path id="Path_1440" data-name="Path 1440" d="M24.339,54.942a1.974,1.974,0,0,1-1.974,1.974H20a1.974,1.974,0,0,1,0-3.948h2.369A1.974,1.974,0,0,1,24.339,54.942Zm9.553,0a1.974,1.974,0,0,1-1.974,1.974H29.55a1.974,1.974,0,0,1,0-3.948h2.369a1.974,1.974,0,0,1,1.934,1.974Zm9.534,0a1.974,1.974,0,0,1-1.974,1.974H39.084a1.974,1.974,0,0,1,0-3.948h2.369a1.974,1.974,0,0,1,1.934,1.974Zm-19.087,7.9a1.974,1.974,0,0,1-1.974,1.974H20a1.974,1.974,0,0,1,0-3.948h2.369A1.974,1.974,0,0,1,24.339,62.9Zm9.553,0a1.974,1.974,0,0,1-1.974,1.974H29.55a1.974,1.974,0,0,1,0-3.948h2.369A1.974,1.974,0,0,1,33.853,62.9Zm9.534,0a1.974,1.974,0,0,1-1.974,1.974H39.084a1.974,1.974,0,0,1,0-3.948h2.369A1.974,1.974,0,0,1,43.387,62.9Zm-19.087,7.9a1.974,1.974,0,0,1-1.974,1.974H20a1.974,1.974,0,1,1,0-3.948h2.369a1.974,1.974,0,0,1,1.974,2.092Zm9.553,0a1.974,1.974,0,0,1-1.974,1.974H29.55a1.974,1.974,0,1,1,0-3.948h2.369a1.974,1.974,0,0,1,1.934,2.092Zm9.534,0a1.974,1.974,0,0,1-1.974,1.974H39.084a1.974,1.974,0,0,1,0-3.948h2.369a1.974,1.974,0,0,1,1.934,2.092Z" fill="#2a3854"/>
      <path id="Path_1441" data-name="Path 1441" d="M61.191,35.085a2.2,2.2,0,1,1-.02.118ZM59.217,30.21a1.978,1.978,0,1,0,1.954-1.855S59.217,29.12,59.217,30.21Z" fill="#5dd1fd"/>
    </g>
  </g>
</svg>
