<svg id="social-facebook" xmlns="http://www.w3.org/2000/svg" width="39.661" height="39.661" viewBox="0 0 39.661 39.661">
  <path id="Path_1755" data-name="Path 1755" d="M39.661,19.83A19.835,19.835,0,0,1,22.929,39.42V25.563H27.55l.879-5.732h-5.5v-3.72c0-1.569.768-3.1,3.232-3.1h2.5V8.134a30.5,30.5,0,0,0-4.439-.387c-4.529,0-7.49,2.745-7.49,7.715V19.83H11.7v5.732h5.035V39.42A19.832,19.832,0,1,1,39.661,19.83Z" transform="translate(0 0)" fill="#1877f2"/>
  <path id="Path_1756" data-name="Path 1756" d="M166.853,117.816l.879-5.732h-5.5v-3.72c0-1.568.768-3.1,3.232-3.1h2.5v-4.88a30.493,30.493,0,0,0-4.439-.387c-4.53,0-7.49,2.745-7.49,7.715v4.369H151v5.732h5.035v13.857a20.042,20.042,0,0,0,6.2,0V117.816Z" transform="translate(-139.303 -92.254)" fill="#fff"/>
</svg>
