<svg xmlns="http://www.w3.org/2000/svg" xmlns:xlink="http://www.w3.org/1999/xlink" width="39" height="39" viewBox="0 0 39 39">
  <defs>
    <linearGradient id="linear-gradient" x1="0.119" y1="0.881" x2="0.83" y2="0.17" gradientUnits="objectBoundingBox">
      <stop offset="0" stop-color="#fee411"/>
      <stop offset="0.052" stop-color="#fedb16"/>
      <stop offset="0.138" stop-color="#fec125"/>
      <stop offset="0.248" stop-color="#fe983d"/>
      <stop offset="0.376" stop-color="#fe5f5e"/>
      <stop offset="0.5" stop-color="#fe2181"/>
      <stop offset="1" stop-color="#9000dc"/>
    </linearGradient>
  </defs>
  <g id="social-instagram" transform="translate(0.01)">
    <circle id="Ellipse_255" data-name="Ellipse 255" cx="19.5" cy="19.5" r="19.5" transform="translate(-0.01)" fill="url(#linear-gradient)"/>
    <g id="Group_534" data-name="Group 534" transform="translate(8.905 8.768)">
      <path id="Path_1757" data-name="Path 1757" d="M146.242,131h-8.373a6.773,6.773,0,0,0-6.769,6.769v8.373a6.773,6.773,0,0,0,6.769,6.769h8.373a6.773,6.773,0,0,0,6.769-6.769v-8.373A6.773,6.773,0,0,0,146.242,131Zm4.322,15.15a4.335,4.335,0,0,1-4.331,4.331H137.86a4.335,4.335,0,0,1-4.331-4.331v-8.373a4.335,4.335,0,0,1,4.331-4.331h8.373a4.335,4.335,0,0,1,4.331,4.331Z" transform="translate(-131.1 -131)" fill="#fff"/>
      <path id="Path_1758" data-name="Path 1758" d="M197.7,192.1a5.6,5.6,0,1,0,5.6,5.6A5.613,5.613,0,0,0,197.7,192.1Zm0,9a3.4,3.4,0,1,1,3.4-3.4A3.405,3.405,0,0,1,197.7,201.1Z" transform="translate(-186.752 -186.743)" fill="#fff"/>
      <ellipse id="Ellipse_256" data-name="Ellipse 256" cx="0.947" cy="0.947" rx="0.947" ry="0.947" transform="matrix(0.987, -0.16, 0.16, 0.987, 15.742, 4.254)" fill="#fff"/>
    </g>
  </g>
</svg>
