<svg id="social-youtube" xmlns="http://www.w3.org/2000/svg" width="39.661" height="39.661" viewBox="0 0 39.661 39.661">
  <g id="Social-Media-Collection" transform="translate(0 0)">
    <g id="Youtube">
      <g id="Fill-314">
        <path id="Fill-207" d="M29.746,20.579a30,30,0,0,1-.2,3.21,4.287,4.287,0,0,1-.788,1.968,2.832,2.832,0,0,1-1.987.839c-2.775.2-6.942.207-6.942.207s-5.156-.047-6.742-.2a3.364,3.364,0,0,1-2.186-.848,4.287,4.287,0,0,1-.788-1.968,30,30,0,0,1-.2-3.21v-1.5a29.964,29.964,0,0,1,.2-3.209A4.29,4.29,0,0,1,10.9,13.9a2.832,2.832,0,0,1,1.987-.839c2.775-.2,6.938-.2,6.938-.2h.007s4.163,0,6.938.2a2.832,2.832,0,0,1,1.987.839,4.29,4.29,0,0,1,.788,1.969,29.964,29.964,0,0,1,.2,3.209ZM19.83,0a19.83,19.83,0,1,0,19.83,19.83A19.83,19.83,0,0,0,19.83,0Z" transform="translate(0 0)" fill="#ea412c" fill-rule="evenodd"/>
      </g>
      <path id="Fill-208" d="M28.7,32.73l5.358-2.776-5.359-2.8Z" transform="translate(-10.912 -10.328)" fill="#ea412c" fill-rule="evenodd"/>
    </g>
  </g>
</svg>
