<svg xmlns="http://www.w3.org/2000/svg" width="28.443" height="28.536" viewBox="0 0 28.443 28.536">
  <g id="icon-upgrade" transform="translate(-1 -0.964)">
    <path id="Path_1142" data-name="Path 1142" d="M24.42,10.486,15.278,1.343a1.293,1.293,0,0,0-1.828,0L4.308,10.486a1.293,1.293,0,1,0,1.828,1.828l6.935-6.936V23.036a1.293,1.293,0,0,0,2.586,0V5.378l6.935,6.936a1.293,1.293,0,1,0,1.828-1.828Z" transform="translate(0.858 0)" fill="#15ba77"/>
    <path id="Path_1143" data-name="Path 1143" d="M15.222,26.55A14.238,14.238,0,0,1,1,12.329a1.293,1.293,0,1,1,2.586,0,11.636,11.636,0,0,0,23.272,0,1.293,1.293,0,1,1,2.586,0A14.238,14.238,0,0,1,15.222,26.55Z" transform="translate(0 2.95)" fill="#afabb3"/>
  </g>
</svg>